HIERARCHY
ROOT Hips
{
	OFFSET 0.000000 0.000000 0.000000 
	CHANNELS 6 Xposition Yposition Zposition Yrotation Zrotation Xrotation 
	JOINT Lumbar
	{
		OFFSET 0.000000 0.000000 0.000000 
		CHANNELS 3 Zrotation Xrotation Yrotation
		JOINT Neck
		{
			OFFSET 0.000000 0.445665 0.000000 
			CHANNELS 3 Zrotation Xrotation Yrotation
			End Site
			{
				OFFSET 0.000000 0.227535 0.000000 
			}
		}
		JOINT RightShoulder
		{
			OFFSET 0.019635 0.377685 0.194865 
			CHANNELS 3 Zrotation Xrotation Yrotation
			JOINT RightElbow
			{
				OFFSET 0.000000 -0.243375 0.000000 
				CHANNELS 2 Zrotation Yrotation
				JOINT RightWrist
				{
					OFFSET 0.000000 -0.264825 0.000000 
					CHANNELS 2 Zrotation Xrotation
					End Site
					{
						OFFSET 0.006600 -0.176220 0.000990 
					}
				}
			}
		}
		JOINT LeftShoulder
		{
			OFFSET 0.019635 0.377685 -0.194865 
			CHANNELS 3 Zrotation Xrotation Yrotation
			JOINT LeftElbow
			{
				OFFSET 0.000000 -0.243375 0.000000 
				CHANNELS 2 Zrotation Yrotation
				JOINT LeftWrist
				{
					OFFSET 0.000000 -0.264825 0.000000 
					CHANNELS 2 Zrotation Xrotation
					End Site
					{
						OFFSET 0.006600 -0.176220 -0.000990 
					}
				}
			}
		}
	}
	JOINT RightHip
	{
		OFFSET 0.052140 -0.069960 0.075570 
		CHANNELS 3 Zrotation Xrotation Yrotation
		JOINT RightKnee
		{
			OFFSET 0.000000 -0.402270 0.000000 
			CHANNELS 1 Zrotation
			JOINT RightAnkle
			{
				OFFSET 0.000000 -0.404085 0.000000 
				CHANNELS 3 Zrotation Xrotation Yrotation
				End Site
				{
					OFFSET 0.204105 -0.089430 0.008415 
				}
			}
		}
	}
	JOINT LeftHip
	{
		OFFSET 0.052140 -0.069960 -0.075570 
		CHANNELS 3 Zrotation Xrotation Yrotation
		JOINT LeftKnee
		{
			OFFSET 0.000000 -0.402270 0.000000 
			CHANNELS 1 Zrotation
			JOINT LeftAnkle
			{
				OFFSET 0.000000 -0.404085 0.000000 
				CHANNELS 3 Zrotation Xrotation Yrotation
				End Site
				{
					OFFSET 0.204105 -0.089430 -0.008415 
				}
			}
		}
	}
}
MOTION
Frames: 22
Frame Time: 0.02
-1.84976 -0.02566 0.32476 1009.01714 -42.80552 -1.27469 52.43479 -0.173 6.80906 -2.69636 -3.56117 -0.83079 -44.23041 7.3151 39.24473 36.91178 98.76527 -22.64684 -6.74581 -41.08995 0.15626 -37.29835 42.70635 -104.64123 -18.36466 8.71386 33.3246 5.03371 -7.07286 -36.53167 -9.1835 -2.68547 -2.14312 65.08853 10.35057 9.0627 -18.7412 -11.85679 3.76253 2.90445
-1.83636 -0.02387 0.34069 1009.12052 -42.3754 -0.99789 52.50318 -0.35055 5.70232 -2.82212 -3.70371 -0.83079 -44.29378 6.70695 39.65761 37.07048 99.30191 -23.35241 -6.75229 -41.32095 -0.00692 -38.10461 42.78521 -105.15252 -19.17694 8.62401 34.55341 4.07271 -6.9224 -40.10684 -10.19457 -2.67397 -2.18049 64.1534 9.85953 8.27007 -20.57402 -11.49456 4.20619 3.13579
-1.82322 -0.02225 0.35542 1009.22139 -41.82785 -0.79203 52.32538 -0.47551 4.65773 -2.84856 -3.8324 -0.83079 -44.38227 6.01886 40.25269 37.20026 99.94172 -24.23751 -6.75065 -41.49701 -0.16639 -39.12147 42.7654 -105.322 -20.10587 8.41755 36.17731 3.05515 -7.28181 -44.18532 -11.30514 -2.63234 -2.2049 62.86348 9.32565 8.87137 -21.88385 -11.0449 4.03051 3.01006
-1.81002 -0.02057 0.37065 1009.32748 -41.3372 -0.56606 52.25798 -0.61868 3.57513 -2.92663 -3.96729 -0.83079 -44.45657 5.3748 40.74441 37.34178 100.5143 -24.99544 -6.75401 -41.6968 -0.33729 -40.01362 42.77683 -105.63904 -20.94162 8.26387 37.63295 2.10271 -7.38848 -47.98668 -12.31151 -2.61127 -2.23651 61.74265 8.82229 8.79871 -23.42991 -10.64043 4.14991 3.05456
-1.79656 -0.01879 0.38608 1009.42174 -40.82921 -0.28469 52.19865 -0.78707 2.52622 -2.9794 -4.1035 -0.83079 -44.53623 4.69507 41.33019 37.48303 101.15444 -25.91839 -6.74923 -41.90314 -0.4696 -41.02598 42.84476 -105.97418 -21.93222 8.10509 39.04974 0.98213 -7.57434 -52.01771 -13.56836 -2.56266 -2.26347 60.59794 8.26673 8.85425 -25.01467 -10.21493 4.22424 3.07242
-1.78372 -0.01727 0.40079 1009.54145 -40.33175 -0.13701 52.06412 -0.89082 1.4249 -3.06036 -4.23275 -0.83079 -44.6136 4.0739 41.75832 37.61923 101.68643 -26.5525 -6.76048 -42.08255 -0.68012 -41.83789 42.77317 -106.19654 -22.63582 7.93227 40.6376 0.19832 -7.72383 -55.66608 -14.32935 -2.56312 -2.29646 59.41683 7.81241 8.99127 -26.38096 -9.8119 4.23952 3.05771
-1.77246 -0.01645 0.41382 1009.68945 -39.87497 -0.34321 51.77221 -0.81815 0.16391 -3.24425 -4.35327 -0.83079 -44.67179 3.60855 41.73678 37.76123 101.88344 -26.33201 -6.81737 -42.19798 -1.111 -42.05543 42.32619 -106.18924 -22.5057 7.74 42.60311 0.36725 -7.60043 -58.30355 -13.66301 -2.7139 -2.35224 58.20108 7.64137 8.9991 -27.28523 -9.4901 4.25629 3.04756
-1.76183 -0.0159 0.42615 1009.86988 -39.43611 -0.68169 51.41432 -0.6838 -1.14989 -3.45925 -4.46594 -0.83079 -44.72839 3.20956 41.5462 37.89703 101.9736 -25.82637 -6.89083 -42.28886 -1.61945 -42.0619 41.74567 -106.08521 -22.09676 7.53997 44.72424 0.87594 -7.43196 -60.50267 -12.50055 -2.91378 -2.41401 56.96321 7.5756 9.04871 -27.98065 -9.19413 4.23105 3.01476
-1.75096 -0.01522 0.43877 1010.06189 -39.00047 -0.95893 51.09315 -0.58464 -2.43995 -3.65952 -4.57748 -0.83079 -44.79153 2.79726 41.40965 38.0295 102.12107 -25.45633 -6.95788 -42.39234 -2.09015 -42.15923 41.23449 -106.02545 -21.81286 7.35041 46.77332 1.22333 -7.31679 -62.7943 -11.58582 -3.08599 -2.47087 55.74768 7.4669 9.09433 -28.75856 -8.88736 4.21487 2.9867
-1.7399 -0.01455 0.45147 1010.14233 -38.51295 -1.2435 50.7362 -0.45407 -3.73121 -3.85988 -4.70824 -0.83079 -44.83285 2.31189 41.36658 38.1902 102.2306 -25.04349 -7.0212 -42.48651 -2.57251 -42.28754 40.6798 -105.94155 -21.49901 7.12779 48.84741 1.59702 -7.08283 -65.56665 -10.57782 -3.27908 -2.53608 54.46835 7.33621 9.12646 -29.57151 -8.57323 4.21941 2.96958
-1.72939 -0.01394 0.46386 1010.46352 -38.13903 -1.54306 50.43983 -0.37419 -5.02788 -4.06745 -4.79744 -0.83079 -44.91645 1.99443 41.09778 38.28673 102.39789 -24.67896 -7.09466 -42.59662 -3.04752 -42.29558 40.18977 -105.90283 -21.23108 6.97319 50.89431 1.99833 -7.07637 -67.21134 -9.64852 -3.44158 -2.58605 53.32091 7.27646 9.17613 -30.26824 -8.28218 4.17913 2.92914
-1.7203 -0.01338 0.47561 1011.43638 -38.07803 -1.85309 50.34147 -0.45622 -6.37164 -4.29845 -4.77257 -0.83079 -45.13917 2.13436 40.14466 38.24614 102.70215 -24.26272 -7.20683 -42.74159 -3.49523 -42.04973 39.8724 -105.89314 -20.70409 7.01375 52.88453 2.3856 -7.71699 -65.9796 -9.03017 -3.51055 -2.59277 52.54829 7.39098 9.28061 -30.6991 -8.04475 4.02538 2.82954
-1.71174 -0.01288 0.48708 1012.65166 -38.13129 -2.17263 50.30544 -0.59039 -7.71005 -4.53395 -4.70652 -0.83079 -45.40055 2.43964 38.98671 38.13505 103.07498 -23.94749 -7.32616 -42.90571 -3.9299 -41.68626 39.63185 -105.95136 -20.30606 7.12249 54.82927 2.79085 -8.5755 -63.60132 -8.51534 -3.55361 -2.58758 51.91058 7.57258 9.39159 -31.02198 -7.83084 3.83109 2.70914
-1.70293 -0.01238 0.49867 1013.75893 -38.1297 -2.487 50.23185 -0.69643 -9.02271 -4.76065 -4.66014 -0.83079 -45.62939 2.66294 37.99089 38.02997 103.45026 -23.75768 -7.43229 -43.07237 -4.36365 -41.35543 39.38264 -106.06486 -20.16037 7.19726 56.75601 3.19257 -9.33751 -61.65993 -7.96755 -3.5979 -2.5831 51.20864 7.72118 9.48139 -31.39425 -7.60902 3.65835 2.60024
-1.69421 -0.01176 0.51028 1014.85696 -38.13847 -2.8112 50.19247 -0.81892 -10.45963 -5.01719 -4.6092 -0.83079 -45.92036 2.91688 36.70473 38.03084 103.68765 -22.85204 -7.58 -43.19416 -4.83205 -41.09646 39.0202 -105.83146 -18.73794 7.2849 58.85243 3.58545 -10.12301 -60.05862 -7.33258 -3.65981 -2.58379 50.51541 7.88463 9.64922 -31.75759 -7.3761 3.47033 2.48157
-1.6854 -0.0114 0.52179 1016.03295 -38.15574 -3.11345 50.10045 -0.92046 -11.63144 -5.21188 -4.55836 -0.83079 -46.09245 3.14599 35.96815 37.79904 104.2203 -23.44336 -7.64384 -43.40993 -5.22037 -40.67363 38.91067 -106.31248 -19.95174 7.3613 60.58161 3.99795 -10.86747 -57.48268 -6.92337 -3.71408 -2.58949 49.8397 8.03098 9.65692 -32.11667 -7.17182 3.30542 2.37878
-1.67624 -0.01171 0.5331 1017.35159 -38.14109 -3.36907 49.82307 -0.95053 -12.10944 -5.2378 -4.51535 -0.83079 -45.91475 3.26023 36.87739 36.90227 105.63458 -28.32898 -7.4634 -43.91881 -5.42371 -39.73034 39.50735 -108.97264 -28.91029 7.39673 61.31483 4.44574 -11.83825 -52.50041 -6.99675 -3.43436 -2.44587 49.15131 8.1198 9.20473 -32.49208 -7.03904 3.21272 2.32432
-1.66696 -0.01227 0.54433 1018.74258 -38.13581 -3.59854 49.49537 -0.95811 -12.31383 -5.20051 -4.47426 -0.83079 -45.61802 3.34391 38.33481 35.78147 107.32871 -34.68237 -7.20019 -44.51508 -5.54102 -38.64332 40.35185 -112.3101 -40.42777 7.41744 61.67844 4.91278 -12.69666 -46.58348 -7.31404 -3.19862 -2.33435 48.48082 8.18766 8.59357 -32.86763 -6.9346 3.14512 2.28677
-1.65771 -0.01273 0.55559 1020.10911 -38.14447 -3.82862 49.20749 -0.97696 -12.61878 -5.19011 -4.43412 -0.83079 -45.38414 3.44587 39.48863 34.78903 108.8407 -40.24624 -6.98208 -45.04576 -5.67487 -37.68914 41.06583 -115.1895 -50.44719 7.44033 62.2052 5.37992 -13.33672 -41.087 -7.60263 -3.16281 -2.32249 47.82127 8.26026 8.0657 -33.24328 -6.81815 3.06746 2.2421
-1.64857 -0.01314 0.56685 1021.44889 -38.0814 -4.10678 48.85082 -0.99348 -13.02329 -5.18805 -4.3853 -0.83079 -45.11597 3.53768 40.85793 33.68107 110.58684 -46.33904 -6.73297 -45.68438 -5.90085 -36.45386 41.85705 -118.69824 -61.87892 7.48404 62.74867 5.81414 -15.08215 -35.54672 -7.56314 -2.23302 -1.84566 47.08778 8.35446 7.49245 -33.61478 -6.69848 2.98313 2.19453
-1.63916 -0.01372 0.57811 1022.85803 -38.16712 -4.27838 48.62388 -1.00843 -13.15641 -5.15304 -4.35501 -0.83079 -44.88876 3.63797 41.92038 32.76264 111.91112 -51.6668 -6.52826 -46.12111 -5.91804 -35.76121 42.54638 -121.06532 -70.98373 7.48074 63.17286 6.3167 -14.54547 -29.91795 -8.24427 -3.13168 -2.32279 46.50842 8.39904 6.97467 -33.99581 -6.59242 2.91859 2.15701
-1.62912 -0.01466 0.5893 1024.44306 -38.6726 -4.16252 48.77466 -1.02752 -12.59945 -5.04656 -4.38012 -0.83079 -44.81773 3.79682 41.92424 32.41149 111.99894 -54.61587 -6.46991 -45.95706 -5.35056 -36.69281 42.88275 -120.03502 -72.95915 7.34454 63.33211 7.04176 -7.30311 -24.04475 -11.02435 -9.45031 -5.61821 46.37027 8.3015 6.65873 -34.40901 -6.51311 2.90798 2.14574
